<?xml version="1.0" encoding="utf-8"?>
<!DOCTYPE svg PUBLIC "-//W3C//DTD SVG 1.0//EN" "http://www.w3.org/TR/2001/REC-SVG-20010904/DTD/svg10.dtd">
<svg version="1.0" xmlns="http://www.w3.org/2000/svg" width="428px" height="506px" viewBox="0 0 428 506" preserveAspectRatio="xMidYMid meet">
 <g fill="#ffffff">
  <path d="M210 502.3 c-1.9 -0.7 -18 -8.1 -20 -9.2 -0.8 -0.4 -6 -3.2 -11.5 -6.1 -13.2 -7 -13.6 -7.3 -9.4 -8.2 5.1 -1 90.7 -1 91.3 0.1 0.3 0.5 0 1.3 -0.7 1.9 -2.3 1.9 -28.2 15.1 -36.5 18.6 -8.3 3.6 -10.3 4 -13.2 2.9z"/>
  <path d="M160.5 469.8 c-0.9 -2.8 -4.5 -21.6 -5 -26.8 -0.4 -3 -1 -6.7 -1.5 -8.2 -1.1 -3.5 -8.9 -14 -9.9 -13.4 -0.4 0.3 -0.9 9.6 -1 20.8 -0.1 11.2 -0.6 20.7 -1.1 21.2 -0.6 0.6 -1.9 0.1 -3.5 -1.4 l-2.5 -2.4 0.2 -26.5 0.3 -26.6 76.5 0 76.5 0 0.3 27.1 0.2 27.1 -2.6 1.8 c-1.4 0.9 -2.8 1.4 -3.2 1 -0.3 -0.3 -0.8 -10 -1 -21.6 -0.5 -23.7 -0.3 -23.3 -7.6 -12.5 -2.8 4 -3.8 6.7 -4.6 12.6 -1.7 12.1 -4.2 25.4 -5.2 27.3 -0.9 1.8 -2.5 2.2 -4.5 0.9 -1.2 -0.8 -0.3 -8.3 3.5 -28.9 1.8 -9.4 2.4 -11 7.5 -18.5 3 -4.5 5.3 -8.6 5.1 -9 -0.8 -1.2 -128.4 -1 -128.4 0.2 0 0.6 2.4 4.6 5.3 8.8 5 7.3 5.5 8.6 7.5 19.3 3.8 20.5 4.6 27.1 3 28 -1.9 1.3 -3.8 1.1 -4.3 -0.3z"/>
  <path d="M174 469.3 c0 -0.5 0.9 -1.9 2 -3.3 2.7 -3.4 2.6 -4.1 -2 -8.5 -4.8 -4.6 -5 -6.7 -1.1 -9.6 1.6 -1.1 3.5 -3.2 4.2 -4.5 1.1 -2.2 1 -2.7 -2.1 -5.9 -2 -2.1 -4.4 -3.5 -5.8 -3.5 -1.4 0 -2.1 -0.4 -1.6 -1.1 0.3 -0.6 -0.8 -3.1 -2.6 -5.5 -3.9 -5.5 -3.2 -6.9 1.3 -2.6 1.8 1.8 3.7 3.2 4.2 3.2 0.5 0 2.8 -1.8 5.1 -4.1 4.8 -4.7 6.1 -4.7 11.8 0.6 2.1 1.9 4.1 3.5 4.4 3.5 0.2 0 2.4 -1.8 4.8 -4 2.4 -2.2 4.8 -4 5.4 -4 0.6 0 3 1.8 5.4 4 2.4 2.2 4.7 4 5.1 4 0.4 0 2.7 -1.8 5.1 -4 2.4 -2.2 5.1 -4 6 -4 0.9 0 3.3 1.8 5.3 4 2 2.2 4 4 4.4 4 0.4 0 3 -1.8 5.8 -4 2.8 -2.2 5.6 -4 6.3 -4 0.7 0 3 1.8 5.1 4 2.1 2.2 4.4 4 4.9 4 0.6 0 2.4 -1.4 4.2 -3.1 4.5 -4.4 6.3 -3.3 2.5 1.5 -1.7 2.1 -3.1 4.7 -3.1 5.7 0 1.3 -0.7 1.9 -2.3 1.9 -2.3 0 -8.7 5.6 -8.7 7.6 0 0.5 1.8 2.8 4 4.9 2.2 2.1 4 4.6 4 5.5 0 0.9 -1.8 3.4 -4 5.5 -2.2 2.1 -4 4.3 -4 4.9 0 0.5 1.1 2.4 2.6 4.3 2.9 3.8 1.3 4.6 -2.9 1.3 -1.4 -1.1 -2.9 -2 -3.5 -2 -0.5 0 -1.7 0.9 -2.7 2 -1.7 1.9 -4.5 2.7 -4.5 1.4 0 -0.3 1.2 -2 2.6 -3.7 l2.5 -3 -4 -4.1 -4.1 -4 -3.5 3.4 c-4.1 4 -4.2 4.8 -1.4 8.4 2.8 3.5 1.8 4.4 -1.9 1.7 -3.7 -2.6 -4.4 -2.6 -6.7 -0.1 -1.8 2 -4.5 2.7 -4.5 1.3 0 -0.5 0.9 -1.9 2 -3.3 1.1 -1.4 2 -3 2 -3.6 0 -1.5 -5.3 -6.4 -7 -6.4 -1.7 0 -7 4.9 -7 6.4 0 0.6 1.2 2.5 2.6 4.1 2.2 2.6 2.3 3 0.9 3.3 -0.9 0.2 -2.7 -0.6 -3.9 -1.7 -2.8 -2.6 -3 -2.6 -6.6 0.1 -3.7 2.7 -5.1 1.6 -2.2 -1.5 3 -3.2 2.8 -4.8 -1.3 -8.7 l-3.5 -3.4 -3.5 3.4 c-4.1 3.9 -4.2 4.8 -1.5 8.3 1.1 1.4 2 2.8 2 3.1 0 1.3 -2.8 0.5 -4.5 -1.4 -2.2 -2.5 -3.3 -2.5 -6.5 0 -2.6 2.1 -4 2.5 -4 1.3z m11.5 -12.4 c1.9 -1.7 3.5 -3.6 3.5 -4.2 0 -1.6 -6.1 -7.7 -7.8 -7.7 -1.6 0 -7.2 5.9 -7.2 7.6 0 1.1 6.4 7.4 7.5 7.4 0.2 0 2 -1.4 4 -3.1z m22.5 -1.9 l2.1 -3 -2.6 -3.4 c-1.4 -1.9 -3.2 -3.7 -3.9 -3.9 -1.3 -0.5 -8.6 6.1 -8.6 7.7 0 0.5 1.6 2.3 3.6 4.2 4.2 3.8 5.8 3.5 9.4 -1.6z m19.5 1.9 c1.9 -1.7 3.5 -3.6 3.5 -4.2 0 -1.5 -6.1 -7.7 -7.6 -7.7 -1.4 0 -7.4 6 -7.4 7.4 0 0.9 6.5 7.6 7.4 7.6 0.3 0 2.1 -1.4 4.1 -3.1z m21.2 -0.1 c1.8 -1.8 3.3 -3.7 3.3 -4.2 0 -1.6 -5.9 -7.6 -7.4 -7.6 -0.8 0 -2.8 1.6 -4.6 3.6 l-3.2 3.7 3.8 3.8 c2.1 2.2 4 3.9 4.3 3.9 0.3 0 2 -1.4 3.8 -3.2z m-52.2 -10.9 l3.7 -4.1 -2.4 -2.6 c-5.1 -5.8 -4.8 -5.6 -7.3 -4.2 -1.2 0.7 -3.2 2.5 -4.4 4.1 l-2.1 2.9 3.6 4 c2 2.2 4 4 4.4 4 0.4 0 2.4 -1.8 4.5 -4.1z m42 0.1 l3.9 -3.9 -2 -2.3 c-3.3 -4 -5.3 -5.8 -6.2 -5.8 -1.3 0 -7.2 6.1 -7.2 7.5 0 1.3 5.8 8.5 6.9 8.5 0.4 0 2.4 -1.8 4.6 -4z m-21.8 0.4 c4.2 -3.2 4.2 -5.2 -0.1 -9.3 -2.8 -2.7 -3.7 -3.1 -5.4 -2.2 -2.3 1.2 -5.2 5.4 -5.2 7.5 0 1.2 5.6 6.6 6.9 6.6 0.2 0 1.9 -1.1 3.8 -2.6z m-31.2 -11.4 l3.9 -4 -3.4 -3.5 c-1.9 -1.9 -4.1 -3.5 -5 -3.5 -0.9 0 -3.1 1.6 -5 3.5 l-3.4 3.5 3.9 4 c2.1 2.2 4.2 4 4.5 4 0.3 0 2.4 -1.8 4.5 -4z m21.5 -7.5 c-1.9 -1.9 -3.9 -3.5 -4.5 -3.5 -0.6 0 -2.6 1.6 -4.5 3.5 l-3.4 3.5 3.9 4 3.9 4 4 -4 4 -4 -3.4 -3.5z m22.4 1.2 c-4.2 -5.6 -7.2 -5.7 -11.3 -0.6 l-2.4 3 3.9 4 3.8 3.9 3.9 -3.9 4 -3.9 -1.9 -2.5z m20.6 5.7 l3.2 -3.6 -3.3 -3.4 c-1.8 -1.9 -4 -3.4 -4.9 -3.4 -0.9 0 -3.1 1.6 -5 3.5 l-3.4 3.5 3.4 3.5 c1.9 1.9 4.2 3.5 5.1 3.5 0.9 0 3.1 -1.6 4.9 -3.6z"/>
  <path d="M309.7 443.3 c-0.2 -0.5 -0.4 -18.3 -0.3 -39.6 0.2 -34.3 0 -38.9 -1.3 -39.6 -0.9 -0.4 -5.4 -0.9 -10.1 -1 -9.1 -0.3 -11.1 -1.1 -9.4 -3.9 0.9 -1.4 2.8 -1.7 10.4 -1.8 9.5 -0.1 11.5 -1 10.5 -4.5 -0.7 -2.2 2.2 -4.6 4.2 -3.3 1.3 0.8 1.5 6.9 1.5 45.7 0 41.5 -0.1 44.9 -1.7 46.7 -1.9 2.1 -3.1 2.5 -3.8 1.3z"/>
  <path d="M54.7 439.3 c-1.6 -1.6 -0.3 -4.2 4.9 -9.7 6.7 -7.2 7.7 -9.2 9.3 -17.6 2.6 -13.5 3.3 -16.6 4.8 -20.5 1.2 -3.1 1.7 -9.8 2.1 -30.8 0.4 -24.9 0.6 -26.8 2.4 -27.8 3.7 -2 4.1 -0.4 3.3 17.1 -0.5 12.4 -0.4 16.9 0.5 17.5 1.6 1 1.6 0.9 3.9 -7.8 2.1 -7.5 6.5 -16.9 13.2 -28.1 l3.4 -5.5 5.3 -0.1 c6.4 0 6.6 -1.6 0.5 -3.9 -2.6 -0.9 -4.4 -2.3 -4.7 -3.5 -0.7 -2.5 -0.8 -12.6 -0.1 -12.6 0.2 0 2.1 1.1 4.1 2.5 6 4.1 5.8 2.9 -0.8 -4.9 -3.7 -4.3 -7.3 -10 -8.8 -13.5 -2.7 -6.5 -4.4 -7.5 -7.4 -4.2 -1 1.1 -2.8 2.1 -3.9 2.3 -1.2 0.2 -3.1 1.8 -4.2 3.6 -1.1 1.8 -4.9 7.2 -8.4 12 -6 8 -6.5 9.1 -7 15.2 -0.8 7.7 -1.6 9.6 -3.7 7.9 -0.8 -0.6 -1.4 -1.8 -1.4 -2.5 0 -0.8 -0.3 -1.4 -0.6 -1.4 -1.5 0 -3.3 3.7 -3.4 6.7 0 1.7 -0.5 3.5 -1.1 3.9 -1.8 1.1 -5 -3.1 -5.6 -7.4 -0.5 -3.6 0 -4.7 4.5 -11.4 2.8 -4 6.3 -10.7 7.8 -14.8 2.7 -7.6 7.7 -16.4 10.7 -18.9 1 -0.7 1.7 -1.9 1.7 -2.6 0 -1.9 7.3 -12.5 11.5 -16.7 2.3 -2.3 6.7 -4.8 11.6 -6.8 7.2 -2.9 7.9 -3.5 7.9 -6 0 -1.5 -0.6 -3.3 -1.4 -3.9 -0.8 -0.6 -1.6 -4.3 -2 -8.7 -0.6 -6.6 -0.4 -7.9 1.4 -10.9 1.3 -2.2 3.6 -3.9 6.4 -5 4 -1.5 4.6 -1.5 12.1 0.4 4.3 1.2 8 2.3 8.3 2.6 0.3 0.2 0 1.7 -0.6 3.2 -1.5 4 -2.2 23.1 -0.8 24.2 0.6 0.5 3.8 1.7 7.1 2.6 6.8 2 11.4 4.5 16.8 9.3 3 2.8 3.7 4.2 3.7 7.1 0.1 4.2 2.3 13.8 3.9 16.9 0.6 1.1 1.1 2.6 1.1 3.2 0 1 -5.6 -1.7 -11.6 -5.6 -1.4 -1 -2.8 -1.3 -3.3 -0.8 -0.4 0.5 -0.5 5 -0.1 9.9 0.5 7 1.3 10.5 3.7 16 1.7 3.9 3.4 8.2 3.7 9.8 0.4 1.5 2.9 6 5.6 9.9 2.8 4 5 7.7 5 8.4 0 0.6 -3.3 2.7 -7.2 4.7 -4 2 -9.8 5.7 -12.8 8.2 -3 2.5 -6 4.5 -6.6 4.5 -0.5 0 -2.3 -1.3 -3.9 -3 -1.6 -1.6 -3.4 -3 -4 -3 -0.6 0 -3.5 2.7 -6.4 5.9 -4.7 5.4 -5.5 5.9 -8.4 5.5 -4.2 -0.6 -9.6 2.2 -11.6 6.1 -0.9 1.7 -3.1 5.4 -5 8.3 -1.8 2.8 -4.1 8.5 -5.2 12.7 -2 8 -2.9 10.2 -6.4 15 -1.2 1.7 -3.9 6.6 -6 11 -3.3 6.7 -3.8 8.9 -3.7 13.9 0.2 7.4 -1.6 10.6 -5.8 10.6 -1.6 0 -3.2 0.5 -3.5 1 -0.7 1.1 -13.8 1.4 -14.8 0.3z"/>
  <path d="M324.2 403.3 c-1.8 -0.4 -2.3 -1 -2 -3.1 l0.3 -2.7 13 0 c11.8 0 13 0.2 13.3 1.9 0.2 1 0 2.2 -0.5 2.6 -1 0.9 -20.8 2 -24.1 1.3z"/>
  <path d="M180 393.8 c-4.6 -5.6 -11 -15 -11 -16.3 0 -0.6 3.3 -2.3 7.4 -3.9 l7.5 -2.8 3.4 2.6 c4.3 3.3 7.8 8.3 11.2 15.9 3.8 8.8 3.9 8.7 -6.2 8.7 l-8.8 0 -3.5 -4.2z"/>
  <path d="M234 381.6 c0 -9.1 0.4 -16.7 0.9 -17 0.5 -0.3 1.9 0.2 3 1.2 2.1 1.6 2.2 2.4 1.9 16.7 l-0.3 15 -2.7 0.3 -2.8 0.3 0 -16.5z"/>
  <path d="M261.5 395.8 c-0.3 -1.3 -0.4 -16.9 -0.3 -34.8 l0.3 -32.5 9.8 -0.3 c9.8 -0.3 9.8 -0.3 9.5 2 -0.3 2.1 -1 2.4 -6.8 2.8 l-6.5 0.5 0.3 27.6 c0.2 15.1 0.1 29.7 -0.3 32.2 -0.6 4.1 -1 4.7 -3.1 4.7 -1.6 0 -2.5 -0.7 -2.9 -2.2z"/>
  <path d="M356 367.5 l0 -22.6 10.7 0.3 c5.9 0.2 10.8 0.7 11 1.3 0.8 2.6 -1.8 4 -8.4 4.5 l-6.8 0.5 -0.5 16 c-0.5 13.6 -0.8 16.5 -2.5 19.2 -1.1 1.8 -2.3 3.3 -2.7 3.3 -0.5 0 -0.8 -10.1 -0.8 -22.5z"/>
  <path d="M125.6 382.1 c-1.9 -2.1 -2.1 -7.9 -0.3 -10.2 0.7 -0.9 4.5 -3.3 8.5 -5.3 4 -2 11.9 -7 17.5 -11 13.7 -9.8 24.7 -14.2 24.7 -9.8 0 0.9 1.6 4.8 3.5 8.6 2.6 5.3 3.2 7.2 2.2 7.8 -2 1.3 -2.3 1 -6.8 -4.3 -4.8 -5.8 -5.9 -5.2 -3.5 1.8 0.9 2.6 1.6 5.2 1.6 5.9 0 1.1 -16.7 7.1 -24.5 8.9 -1.6 0.3 -6.4 2.3 -10.5 4.3 -4.1 2 -8.2 3.9 -9.2 4.3 -1 0.5 -2.2 0.1 -3.2 -1z"/>
  <path d="M109.8 373.4 c-1.1 -1 0.4 -4.5 2.3 -5.5 2.5 -1.3 8.9 -0.1 8.9 1.7 0 1.9 -1.9 2.7 -3.4 1.5 -1 -0.8 -2 -0.6 -3.9 0.9 -2.7 2.2 -3.1 2.3 -3.9 1.4z"/>
  <path d="M199 353.2 c0 -0.4 0.4 -1.2 0.9 -1.7 0.6 -0.6 1.7 -4.6 2.5 -9 3.3 -17 3.7 -18.5 5.1 -18.5 2.3 0 2.7 1.8 1.5 7.8 -2.7 13.6 -4.9 19.8 -7.4 21.4 -1.5 1 -2.6 1 -2.6 0z"/>
  <path d="M210.7 315.4 c-0.4 -0.4 -0.5 -1.6 -0.2 -2.8 0.2 -1.2 0.7 -4.7 1 -7.8 0.5 -4.1 1.1 -5.8 2.1 -5.8 1.1 0 1.4 1.5 1.4 6.3 0 3.4 -0.3 7.2 -0.6 8.5 -0.6 2.1 -2.4 2.9 -3.7 1.6z"/>
  <path d="M312.9 303 c-4.6 -2.8 -18.2 -7.9 -26.9 -10 -5 -1.3 -13 -5.6 -13 -7 0 -0.5 1.2 -3.4 2.6 -6.5 1.5 -3.1 2.3 -5.9 1.9 -6.3 -0.4 -0.4 -2.7 1.5 -5.1 4.2 -3.2 3.5 -4.8 4.6 -5.6 3.8 -1.5 -1.5 -0.4 -5 3.1 -9.7 6 -8.2 5.3 -8.4 27.6 6.5 10.9 7.2 22 14.2 24.6 15.6 5.9 3 6.3 3.6 4.4 7.3 -2.9 5.8 -6.7 6.4 -13.6 2.1z"/>
  <path d="M333.5 299 c-0.9 -1.4 1.5 -4.2 3.1 -3.6 2.2 0.8 14.5 -1.4 19.2 -3.4 2.5 -1.1 4.7 -1.8 5 -1.5 0.3 0.3 -1.2 2 -3.4 3.9 -3.1 2.7 -5.1 3.6 -9.4 4.1 -3 0.3 -7.4 0.8 -9.7 1.1 -2.4 0.3 -4.4 0.1 -4.8 -0.6z"/>
  <path d="M181.2 292.5 c-9.1 -2.2 -15.6 -11 -15 -20.2 0.4 -6.1 2.1 -5.8 2.9 0.5 0.8 6 2.9 10.2 7 13.6 3.5 3 9.2 5.6 12 5.6 1.1 0 1.9 0.5 1.9 1 0 1.3 -2.1 1.2 -8.8 -0.5z"/>
  <path d="M203 271.2 c0 -0.6 2.3 -3 5 -5.5 8.7 -7.9 6.3 -8.2 -8.9 -1.1 -5.1 2.4 -9.6 4.4 -9.9 4.4 -0.2 0 1.2 -2 3.3 -4.6 2 -2.5 3.5 -4.7 3.2 -5 -0.2 -0.3 -3 -0.1 -6.1 0.4 -8.2 1.3 -6.7 -0.8 2.5 -3.4 10.7 -3.1 17.9 -4.2 31.2 -5 8.7 -0.5 11.7 -0.4 11.7 0.5 0 3.3 -4.1 6.5 -16.8 12.8 -16.6 8.3 -15.2 7.7 -15.2 6.5z"/>
  <path d="M355 271.3 c0 -1 5.9 -4.8 8.8 -5.7 3.3 -1.1 2.3 -3.6 -2 -5.3 -3.5 -1.4 -4.1 -1.3 -12 1.7 -11.3 4.2 -16.8 5.9 -16.8 5.1 0 -0.3 4.3 -3.3 9.5 -6.5 5.2 -3.3 9.5 -6.4 9.5 -7 0 -0.6 -1.1 -2.4 -2.4 -4.1 l-2.4 -3 -15.1 7.5 c-8.3 4.1 -15.3 7.1 -15.6 6.8 -0.4 -0.3 0.5 -1.4 2 -2.5 1.4 -1 5 -3.6 7.8 -5.9 2.9 -2.2 8 -6 11.5 -8.3 6.5 -4.6 7.5 -6.8 5.2 -11.2 -1.4 -2.4 -2 -2.4 -6.2 0.5 -1.9 1.2 -5.9 3.7 -8.9 5.3 -3 1.7 -7.1 4 -9.1 5.3 -2.1 1.2 -3.8 1.7 -3.8 1.1 0 -0.5 1.7 -2.3 3.8 -3.8 2 -1.5 8.4 -6.8 14.2 -11.7 9 -7.6 10.7 -9.6 12.2 -13.8 2.4 -6.9 8 -14.1 14.1 -18 7.9 -5.2 11.4 -6.3 19.7 -6.2 13.9 0.1 26.2 8.3 32.3 21.4 2.6 5.6 3 7.6 2.9 14.5 -0.1 12.9 -5.2 23.7 -14.1 29.7 -4.6 3.2 -17.4 7.8 -21.6 7.8 -2.2 0 -4.8 0.8 -13 4 -3.1 1.2 -9.1 3 -9.8 3 -0.4 0 -0.7 -0.3 -0.7 -0.7z m32.7 -13.4 c8.9 -3.3 14.5 -7.9 18.4 -15.1 3.1 -5.8 3.4 -7 3.3 -14.8 0 -6.5 -0.5 -9.6 -2.1 -13.1 -3.2 -7.2 -9 -12.8 -16.3 -16.2 -5.7 -2.6 -7.3 -2.9 -13.6 -2.5 -19.6 1.3 -33.7 20.3 -28.9 39 1.8 7.2 6.1 14.4 10.5 17.7 4.3 3.1 14.8 7 19.2 7.1 2.1 0 6.3 -1 9.5 -2.1z"/>
  <path d="M374.4 253.2 c-2 -1.4 -5.5 -9.4 -4.9 -11.3 0.7 -2.1 -0.5 -2.5 -2.2 -0.8 -0.8 0.8 -1.7 0.8 -3.3 -0.1 -1.1 -0.6 -3.3 -0.9 -4.8 -0.5 -2.5 0.5 -2.9 0.2 -4 -2.8 -2 -5.6 -1.5 -8.2 2.2 -11.5 1.9 -1.6 4 -3.2 4.8 -3.4 1 -0.4 1 -0.8 0.2 -1.9 -0.7 -0.8 -1.4 -3.6 -1.5 -6.3 -0.4 -4.6 -0.2 -5 3.3 -7.9 3.7 -2.9 3.7 -3 7.2 -1.3 1.9 0.9 3.8 2.1 4.1 2.6 1.1 1.7 3.6 1.1 8.2 -2 l4.5 -3.1 4.9 3.2 c4.9 3.1 5.7 4.3 3.9 5.4 -0.5 0.3 -1 2.7 -1 5.3 0 4.1 0.5 5.1 4.2 8.9 l4.2 4.3 -1.2 4.7 c-1.6 5.6 -1.8 5.9 -3.5 4.5 -1 -0.8 -1.6 -0.9 -2.4 -0.1 -0.6 0.6 -3 1.1 -5.3 1.1 -3.4 -0.1 -4 0.2 -3.6 1.6 0.3 0.9 -0.3 3.1 -1.4 4.7 -1.1 1.7 -2 3.7 -2 4.6 0 0.9 -0.7 2 -1.6 2.3 -2.2 0.8 -7.7 0.7 -9 -0.2z m12.8 -23.2 c1.2 -4.6 1.3 -6.3 0.5 -7 -8.8 -7.2 -9.2 -7.2 -14.3 -3.2 -3.7 3 -4.1 4.7 -2.2 11.7 l1.2 4.5 6.6 0 6.6 0 1.6 -6z"/>
  <path d="M265 262 c-1.8 -1.3 -5.8 -2.2 -13.3 -3.1 -5.9 -0.7 -10.7 -1.6 -10.7 -1.9 0 -0.4 0.8 -1.4 1.8 -2.3 1.4 -1.3 3.2 -1.4 11.3 -0.7 10.1 0.8 12.2 1.5 15.3 4.9 1.5 1.7 1.6 2.3 0.6 3.6 -1.6 1.9 -1.9 1.9 -5 -0.5z"/>
  <path d="M166 258.1 c0 -1 0.9 -4.4 2 -7.6 1.1 -3.2 2 -7.3 2 -9.2 0 -4.2 1.6 -4.9 6.5 -2.9 6.6 2.8 6.9 1.8 1.4 -4.1 -4.8 -5.3 -9.4 -13.1 -8.3 -14.2 0.2 -0.2 2.1 1 4.2 2.8 4.9 4.2 21.5 15.1 22.1 14.5 0.3 -0.2 -1.6 -2.6 -4 -5.2 -8.1 -8.4 -18 -23.4 -16.5 -24.9 0.3 -0.3 3.1 1.1 6.2 3.1 3.1 2.1 5.8 3.5 6.1 3.3 1 -1.1 -10 -16.8 -13.8 -19.8 -2.5 -1.9 -8.1 -4.5 -14.6 -6.6 -12.6 -4.1 -16.1 -4 -8.6 0.3 2.9 1.6 5.3 3.2 5.3 3.7 0 1 -3.6 2.3 -9 3.1 l-4.5 0.6 -3.6 -7 c-2.6 -5.1 -3.3 -7.3 -2.5 -7.9 0.7 -0.6 4.8 -2.4 9.1 -4.1 4.4 -1.7 10.6 -4.3 13.9 -5.7 6.6 -2.8 14.8 -3.9 22.9 -2.9 5.8 0.8 7 1.6 12.6 8.7 3.6 4.6 11.6 11.9 13 11.9 0.5 0 1.4 -2 2 -4.4 1.1 -4.6 2.8 -6 5.2 -4.5 3.4 2.1 6 1 7.9 -3.4 1.1 -2.4 2.8 -5.1 3.8 -6 1.1 -1 2.2 -3.8 2.6 -6.5 1.8 -13 2.4 -15 4.4 -17.9 1.6 -2.2 2.2 -4.6 2.2 -8.2 0 -5 0 -5 -2.8 -4.5 -2 0.4 -5.2 -0.4 -10.1 -2.5 -11.3 -4.8 -17 -4 -23.8 3.1 -4.4 4.6 -5.3 7.6 -5.3 17.7 0 6.5 -0.4 9.2 -1.5 10.1 -1.8 1.5 -5.1 0.8 -4.7 -1 0.2 -0.8 0.6 -2.7 0.9 -4.3 l0.6 -3 -9.4 0.7 c-13.1 0.9 -29.3 2.4 -36.3 3.2 l-5.9 0.7 0.7 -5.2 c3.6 -27.2 28.2 -51.9 58.4 -58.7 11.2 -2.5 30.2 -1.6 40.7 1.9 24.8 8.2 44.3 28.9 50 53.1 2 8.6 2 8.8 -1.6 8.4 -3 -0.3 -3.3 -0.7 -4.9 -6.8 -4.8 -18.5 -18.5 -35.3 -35.5 -43.7 -6.7 -3.4 -17.2 -6.5 -20.7 -6.1 -3.1 0.3 -2.9 0.5 4.7 4.2 11.2 5.5 21.9 16.2 27.3 27.4 4.1 8.3 7.2 20.7 5.6 22.1 -0.5 0.5 -4.5 0.4 -8.9 -0.1 -4.4 -0.5 -10 -0.7 -12.3 -0.6 -4.1 0.3 -4.5 0.5 -5.8 4.3 -0.7 2.2 -1.4 5.1 -1.4 6.5 0 1.3 -1.7 5.1 -3.7 8.4 l-3.6 6 2.4 1.5 c1.3 0.9 5.3 4.3 8.9 7.7 3.6 3.3 8 7.1 9.8 8.3 1.7 1.2 3.2 3 3.2 3.9 0 2.4 -7.1 11 -9.7 11.8 -2.2 0.6 -7.3 -2 -7.3 -3.7 0 -0.5 1.2 -1.4 2.7 -2 6.1 -2.3 6 -3.4 -0.3 -3.9 l-5.9 -0.5 -0.6 -3.8 c-0.3 -2 -0.9 -4 -1.2 -4.4 -0.7 -0.7 -0.9 -0.3 -3.2 8.7 -1.9 7.8 -5.4 17 -6.9 18.7 -0.9 1 -2.2 -0.1 -5.5 -4.5 -5.3 -6.8 -6.4 -5.5 -2.6 2.9 2.1 4.7 2.8 8.1 3.1 15.2 0.3 5.1 0.2 9.7 -0.3 10.4 -0.4 0.6 -4.6 1.6 -9.1 2.3 -12.9 1.7 -22.9 4.6 -30.9 9 -6.2 3.3 -7.3 3.7 -7.3 2.1z m23 -83.6 c-0.7 -0.9 -1.5 -1.3 -1.8 -1 -0.3 0.2 0.1 1.1 0.8 2 0.7 0.9 1.5 1.3 1.8 1 0.3 -0.2 -0.1 -1.1 -0.8 -2z"/>
  <path d="M58 220.7 c0 -1.1 4.1 -8.6 5.2 -9.5 0.7 -0.6 4.9 -2 9.1 -3.2 4.3 -1.1 10.9 -3.8 14.5 -5.9 3.7 -2.1 11.1 -6.4 16.5 -9.5 10.3 -6 24.1 -10.6 26 -8.7 1.9 1.9 -0.2 3.8 -5.9 5.1 -3.2 0.8 -11.5 4.3 -18.4 7.9 -6.9 3.5 -15.9 8.1 -20 10.2 -4.1 2.1 -10 4.3 -13 4.9 -4.5 0.8 -6.2 1.8 -9.3 5 -3.4 3.6 -4.7 4.6 -4.7 3.7z"/>
  <path d="M257.5 207.6 c-2.6 -2.1 -2.8 -2.5 -1.2 -3.1 0.9 -0.4 2.4 -0.2 3.2 0.5 1.7 1.4 8.4 0.8 17.9 -1.6 13.3 -3.4 9 0.5 -5 4.5 -9.1 2.7 -11.2 2.6 -14.9 -0.3z"/>
  <path d="M306.6 195.5 c-0.9 -3.5 -4.9 -6 -7.5 -4.6 -2.3 1.3 -6.1 1.4 -6.1 0.3 0 -1.1 6.6 -4.2 8.9 -4.2 2.5 0 7.1 5.5 7.1 8.6 0 3.1 -1.6 3.1 -2.4 -0.1z"/>
  <path d="M22 183.2 c0 -4.9 -0.9 -4.4 31.5 -14.9 12.2 -3.9 13.3 -4.2 25.5 -7.3 11.4 -2.9 42.4 -9 45.5 -9 2.6 0 3.1 1.3 1.9 5.7 -0.5 1.8 -1.8 2.3 -7.7 3.3 -28.1 4.5 -60.2 13.1 -86.7 23.2 -4.1 1.5 -8 2.8 -8.7 2.8 -0.8 0 -1.3 -1.4 -1.3 -3.8z"/>
  <path d="M395 184.4 c-23.9 -9.1 -59.5 -18.9 -84.5 -23.2 l-10 -1.7 -0.3 -3.7 c-0.3 -3.6 -0.1 -3.8 2.5 -3.8 5.7 0 44.5 8.4 55.3 12 3 1 8.9 2.8 13 4 12.7 3.7 30.4 10.1 32.3 11.8 2.1 1.9 1.9 6.6 -0.3 6.9 -0.8 0.1 -4.4 -0.9 -8 -2.3z"/>
  <path d="M120 147 c-3.5 -0.8 -22.9 -3.8 -41.5 -6.4 -24.6 -3.5 -46.4 -6.7 -51.3 -7.7 l-5.3 -1.1 0.3 -15.6 c0.3 -13.3 0.5 -15.7 1.8 -15.5 0.8 0.1 13.4 4.2 28 9.3 14.6 5 38.2 13 52.5 17.7 14.3 4.7 26.1 8.7 26.3 8.8 0.2 0.2 -0.4 2.8 -1.3 5.9 -1.8 6.1 -2.2 6.3 -9.5 4.6z"/>
  <path d="M298.4 146.3 c-0.3 -1 -1 -2.8 -1.5 -4.1 -1.9 -4.7 -1.2 -5.8 4.4 -7.5 5.7 -1.7 74.9 -25.3 91.6 -31.2 6.7 -2.4 10.6 -3.3 11 -2.7 1 1.6 1.3 28.5 0.4 29.8 -0.8 1.1 -7.8 2.6 -20.3 4.4 -4.1 0.6 -10.2 1.5 -13.5 2.1 -5.4 0.8 -29.3 4.4 -46.5 6.9 -3.6 0.5 -10.3 1.6 -15 2.5 -10.6 1.8 -10 1.8 -10.6 -0.2z"/>
  <path d="M126.4 120.7 c-4.3 -3.5 -14.4 -11.3 -22.4 -17.3 -41.6 -31.5 -46.2 -35.2 -45.4 -36.6 0.3 -0.4 1.7 0 3.2 1 1.5 1 6.8 4.2 11.7 6.9 9.3 5.3 15.7 9 41 23.8 8.3 4.8 17.7 10.3 21 12.2 7.9 4.6 8 4.7 5.7 8 -1 1.5 -2.7 4 -3.6 5.6 -0.9 1.5 -2 2.7 -2.5 2.7 -0.4 0 -4.3 -2.9 -8.7 -6.3z"/>
  <path d="M288 123.3 c-1.1 -2.1 -2.6 -4.6 -3.2 -5.5 -0.8 -1.1 -0.9 -2.1 -0.3 -2.7 1.5 -1.4 21.6 -13.7 32.5 -19.8 5.2 -2.9 10.2 -5.7 11 -6.3 1.6 -1 15 -8.7 26 -15 3.6 -2 8.1 -4.7 10.2 -5.9 2 -1.2 3.9 -1.8 4.2 -1.2 0.3 0.5 -6.6 6.5 -15.5 13.3 -33.4 25.6 -37.7 28.9 -49.1 37.8 -6.4 4.9 -12.2 9 -12.7 9 -0.6 0 -2 -1.7 -3.1 -3.7z"/>
  <path d="M147 102.3 c-1.9 -2.7 -11.1 -15.1 -20.5 -27.8 -21.3 -28.6 -26 -35.4 -25.2 -36.1 0.6 -0.6 59.7 58.5 59.7 59.7 0 0.6 -9.5 8.9 -10.3 8.9 -0.2 0 -1.9 -2.1 -3.7 -4.7z"/>
  <path d="M270.8 102.2 c-2.7 -2 -4.8 -4.1 -4.8 -4.7 0.1 -1.4 57.5 -59.5 58.9 -59.5 1.5 0 0 2.7 -6.4 11.4 -31.7 42.7 -39 52.4 -40.8 54.3 l-2.2 2.2 -4.7 -3.7z"/>
  <path d="M172 81.8 c-2.4 -8.9 -7.9 -28.2 -10.4 -36.3 -1.4 -4.6 -6.1 -20.6 -7.3 -24.7 -0.2 -1 0.1 -1.8 0.7 -1.8 0.6 0 3.3 4.8 6.1 10.8 2.8 5.9 9.6 19.8 15 31 5.5 11.1 10 21.2 10.2 22.4 0.2 1.7 -0.7 2.4 -4.5 3.8 -2.6 0.9 -5.1 1.9 -5.5 2.3 -1.5 1.5 -2.2 0.3 -4.3 -7.5z"/>
  <path d="M247 88 c-1.9 -1 -4.3 -2.1 -5.2 -2.4 -1 -0.3 -1.8 -1.2 -1.8 -2.1 0 -0.9 3.3 -8.4 7.4 -16.8 4.1 -8.4 11.1 -22.8 15.7 -32.2 11.9 -24.6 11.7 -22 -2 24.5 -3.3 11.3 -6.6 22.7 -7.3 25.4 -0.7 2.7 -1.8 5 -2.3 5.2 -0.6 0.1 -2.6 -0.6 -4.5 -1.6z"/>
  <path d="M206.6 80.4 c-0.2 -0.5 0 -5 0.5 -9.8 0.5 -4.8 1.3 -14.3 1.9 -21 2.3 -27.7 2.9 -33.6 3.8 -35.2 1 -1.8 2.5 9.9 4.8 37.1 0.7 9.4 1.6 20 2 23.8 l0.7 6.7 -6.6 -0.2 c-3.7 -0.2 -6.9 -0.8 -7.1 -1.4z"/>
 </g>
</svg>